<?xml version="1.0" standalone="no"?>
<!DOCTYPE svg PUBLIC "-//W3C//DTD SVG 20010904//EN"
 "http://www.w3.org/TR/2001/REC-SVG-20010904/DTD/svg10.dtd">
<svg version="1.0" xmlns="http://www.w3.org/2000/svg"
 width="16.000000pt" height="16.000000pt" viewBox="0 0 16.000000 16.000000"
 preserveAspectRatio="xMidYMid meet">
<metadata>
Created by potrace 1.11, written by Peter Selinger 2001-2013
</metadata>
<g transform="translate(0.000000,16.000000) scale(0.006154,-0.006154)"
fill="#000000" stroke="none">
<path d="M1861 2164 c-137 -36 -216 -137 -213 -271 1 -77 35 -130 107 -166 28
-14 94 -15 114 -3 5 3 12 18 15 32 10 38 -17 64 -65 64 -33 0 -41 5 -54 31
-17 32 -15 92 5 128 16 32 69 70 111 81 202 55 392 -87 462 -345 24 -90 29
-121 31 -235 7 -257 -97 -546 -244 -677 -66 -59 -163 -82 -201 -47 -36 33 -44
148 -19 269 6 28 13 64 16 82 3 17 14 62 25 100 117 398 156 627 114 673 -42
46 -82 11 -89 -76 -11 -128 -30 -223 -91 -439 -39 -138 -83 -324 -90 -380 -30
-231 49 -367 206 -352 136 12 268 126 361 312 30 59 86 222 94 274 3 20 8 39
9 42 15 23 22 251 11 324 -3 17 -7 48 -11 70 -38 249 -201 461 -390 510 -55
14 -159 13 -214 -1z"/>
<path d="M1428 2019 c-27 -15 -124 -167 -172 -270 -37 -77 -93 -227 -112 -299
-60 -224 -100 -397 -124 -527 -16 -88 -34 -181 -40 -205 -7 -23 -12 -44 -11
-46 1 -1 -10 -24 -24 -52 -30 -59 -56 -77 -79 -54 -35 34 -40 60 -42 189 -1
115 3 151 37 315 21 102 40 199 43 215 3 17 8 41 11 55 3 14 8 40 11 59 3 18
8 43 10 55 12 55 29 162 28 174 -1 6 -2 18 -3 25 -2 20 -42 36 -68 26 -22 -8
-32 -28 -39 -82 -2 -18 -6 -43 -9 -57 -3 -14 -8 -41 -11 -60 -3 -19 -21 -111
-41 -205 -19 -93 -36 -181 -39 -195 -2 -14 -7 -36 -10 -50 -12 -49 -15 -65
-20 -90 -3 -14 -18 -73 -34 -131 -80 -291 -149 -395 -187 -284 -31 89 -6 304
74 635 52 214 63 298 51 400 -16 138 -59 218 -136 252 -97 43 -205 -7 -298
-138 -63 -88 -87 -160 -88 -259 -1 -68 3 -88 27 -138 31 -63 74 -101 126 -111
79 -15 162 39 139 90 -13 29 -48 40 -76 25 -35 -19 -60 -12 -84 21 -19 28 -23
45 -23 113 0 66 5 89 27 135 47 95 125 170 178 170 42 0 69 -27 86 -85 33
-114 26 -199 -41 -485 -92 -399 -103 -574 -44 -697 60 -123 193 -105 271 37
18 33 38 60 45 60 6 0 19 -13 28 -28 38 -64 121 -90 184 -58 74 39 137 185
166 386 15 103 55 291 96 447 66 253 142 436 245 589 30 44 54 86 54 92 0 16
-37 52 -52 52 -7 0 -21 -5 -30 -11z"/>
<path d="M1505 1486 c-17 -7 -45 -30 -63 -50 -123 -140 -129 -385 -10 -463
122 -81 273 77 283 296 8 165 -92 269 -210 217z m106 -159 c6 -135 -54 -274
-114 -265 -74 10 -48 244 36 314 l31 26 23 -26 c13 -15 23 -37 24 -49z"/>
<path d="M1577 854 c-1 -1 -20 -5 -42 -8 -22 -3 -51 -8 -65 -11 -14 -2 -38 -7
-55 -10 -84 -14 -118 -57 -77 -98 21 -21 22 -21 114 -3 51 10 113 20 138 22
75 8 91 14 99 36 17 48 -8 72 -77 73 -18 1 -34 0 -35 -1z"/>
</g>
</svg>
